<svg width="28" height="23" viewBox="0 0 28 23" fill="none" xmlns="http://www.w3.org/2000/svg">
<path d="M27.4286 19.5714C27.4286 18.9464 26.9107 18.4286 26.2857 18.4286H1.14286C0.517857 18.4286 0 18.9464 0 19.5714V21.8571C0 22.4821 0.517857 23 1.14286 23H26.2857C26.9107 23 27.4286 22.4821 27.4286 21.8571V19.5714ZM27.4286 10.4286C27.4286 9.80357 26.9107 9.28571 26.2857 9.28571H1.14286C0.517857 9.28571 0 9.80357 0 10.4286V12.7143C0 13.3393 0.517857 13.8571 1.14286 13.8571H26.2857C26.9107 13.8571 27.4286 13.3393 27.4286 12.7143V10.4286ZM27.4286 1.28571C27.4286 0.660713 26.9107 0.142857 26.2857 0.142857H1.14286C0.517857 0.142857 0 0.660713 0 1.28571V3.57143C0 4.19643 0.517857 4.71428 1.14286 4.71428H26.2857C26.9107 4.71428 27.4286 4.19643 27.4286 3.57143V1.28571Z" fill="#FF7777"/>
</svg>
