<svg width="434" height="754" viewBox="0 0 434 754" fill="none" xmlns="http://www.w3.org/2000/svg">
<path d="M321.804 474.867L19.7775 3C5.87966 60.5179 3.14634 85.3268 5.47094 118.981C21.2663 177.042 110.375 295.655 239.144 474.867H321.804Z" fill="#E4E4E4"/>
<path d="M237.554 296.924L275.705 355.708C366.499 230.673 412.469 165.623 426.719 118.981C432.503 81.1957 430.025 56.5958 409.233 3L237.554 296.924Z" fill="#E4E4E4"/>
<path d="M167.612 408.138L124.692 474.867H210.531L167.612 408.138Z" fill="#E4E4E4"/>
<path fill-rule="evenodd" clip-rule="evenodd" d="M67.4659 748.136C36.777 731.179 22.2648 718.146 5.47094 682.996C0.098258 648.871 -1.05124 629.739 5.47094 595.614C28.4105 551.789 45.6266 529.764 84.9517 495.521H142.178L167.612 538.418C180.52 599.21 177.933 634.249 167.612 697.295C154.571 720.027 144.707 730.801 124.692 748.136C102.342 754.717 89.8132 754.523 67.4659 748.136ZM96.0789 525.708C69.9643 547.235 59.1064 562.804 45.2113 595.614C41.0791 621.672 41.6755 636.283 45.2113 662.342C54.8768 686.024 64.2115 695.499 84.9517 708.417H115.154C125.904 688.311 130.79 676.915 134.23 655.987C140.902 614.787 142.865 591.423 134.23 547.95L124.692 525.708H96.0789Z" fill="#E4E4E4"/>
<path fill-rule="evenodd" clip-rule="evenodd" d="M264.578 697.295C253.874 635.248 252.819 600.467 264.578 538.418L296.37 495.521H344.059C391.209 523.438 406.958 547.121 426.719 595.614C434.239 629.735 433.463 648.875 426.719 682.996C411.287 714.171 400.284 728.606 375.851 748.136C344.803 754.575 327.415 754.664 296.37 748.136C278.812 728.761 270.403 717.765 264.578 697.295ZM296.37 662.342C288.543 620.731 287.065 596.26 296.37 547.95L313.856 525.708H336.111C365.093 550.117 375.689 565.88 390.158 595.614C393.491 621.674 392.931 636.283 390.158 662.342C381.338 684.142 374.424 694.325 358.365 708.417H321.804C309.432 692.223 303.346 682.516 296.37 662.342Z" fill="#E4E4E4"/>
<path d="M321.804 474.867L19.7775 3C5.87966 60.5179 3.14634 85.3268 5.47094 118.981C21.2663 177.042 110.375 295.655 239.144 474.867H321.804Z" stroke="#E4E4E4" stroke-width="2"/>
<path d="M237.554 296.924L275.705 355.708C366.499 230.673 412.469 165.623 426.719 118.981C432.503 81.1957 430.025 56.5958 409.233 3L237.554 296.924Z" stroke="#E4E4E4" stroke-width="2"/>
<path d="M167.612 408.138L124.692 474.867H210.531L167.612 408.138Z" stroke="#E4E4E4" stroke-width="2"/>
<path fill-rule="evenodd" clip-rule="evenodd" d="M67.4659 748.136C36.777 731.179 22.2648 718.146 5.47094 682.996C0.098258 648.871 -1.05124 629.739 5.47094 595.614C28.4105 551.789 45.6266 529.764 84.9517 495.521H142.178L167.612 538.418C180.52 599.21 177.933 634.249 167.612 697.295C154.571 720.027 144.707 730.801 124.692 748.136C102.342 754.717 89.8132 754.523 67.4659 748.136ZM96.0789 525.708C69.9643 547.235 59.1064 562.804 45.2113 595.614C41.0791 621.672 41.6755 636.283 45.2113 662.342C54.8768 686.024 64.2115 695.499 84.9517 708.417H115.154C125.904 688.311 130.79 676.915 134.23 655.987C140.902 614.787 142.865 591.423 134.23 547.95L124.692 525.708H96.0789Z" stroke="#E4E4E4" stroke-width="2"/>
<path fill-rule="evenodd" clip-rule="evenodd" d="M264.578 697.295C253.874 635.248 252.819 600.467 264.578 538.418L296.37 495.521H344.059C391.209 523.438 406.958 547.121 426.719 595.614C434.239 629.735 433.463 648.875 426.719 682.996C411.287 714.171 400.284 728.606 375.851 748.136C344.803 754.575 327.415 754.664 296.37 748.136C278.812 728.761 270.403 717.765 264.578 697.295ZM296.37 662.342C288.543 620.731 287.065 596.26 296.37 547.95L313.856 525.708H336.111C365.093 550.117 375.689 565.88 390.158 595.614C393.491 621.674 392.931 636.283 390.158 662.342C381.338 684.142 374.424 694.325 358.365 708.417H321.804C309.432 692.223 303.346 682.516 296.37 662.342Z" stroke="#E4E4E4" stroke-width="2"/>
</svg>
