<svg width="700" height="762" viewBox="0 0 700 762" fill="none" xmlns="http://www.w3.org/2000/svg">
<path d="M185 549.5C214.465 533.38 225.81 525.8 253.192 522.379C205.991 596.682 173.285 634.772 118.5 682.5C112.359 694.764 113.207 703.854 118.5 714C140.753 720.156 159.747 722.343 182 717C221.405 669.447 246.207 643.378 298.777 605L340.5 602C367.049 593.179 377.54 587.317 388.522 572C395.73 537.056 393.715 509.355 388.522 436.907C470.603 364.96 514.582 296.094 591 177.5C610.289 142.725 652.386 43.77 664.5 9.54903C674.005 4.40194 674.598 5.2507 681.974 9.54939C690.853 23.3062 694.506 33.1638 693.371 49.4365C668.14 109.51 611.435 215.769 581 268C514.996 355.674 482.238 399.52 417.013 454.001C421.786 525.922 423.378 561.784 417.013 587.907C412.747 603.302 403.851 612.002 388.522 620.671C355.716 623.921 341.595 625.051 308.749 639.19C264.009 675.656 240.657 697.84 203.334 741.755C187.644 748.531 177.748 751.688 157.749 756.001H80.825C48.8518 742.107 34.8834 733.079 30.9666 710.416C100.432 667.675 133.375 626.517 185 549.5Z" fill="#E4E4E4"/>
<path d="M347.5 283.058L335 386C368.5 309.5 431.515 194.061 461.5 113.5C462.429 98.333 470.411 97.0106 456.9 82.2006C448.469 76.7678 443.027 80.3675 432.5 86.0003L403.5 158.5C391.348 202.22 366.09 242.043 347.5 283.058Z" fill="#E4E4E4"/>
<path fill-rule="evenodd" clip-rule="evenodd" d="M130.683 392.747L146.353 436.907L176.268 392.747L231.825 398.445L201.91 350.011L219.004 312.973L170.57 315.822L150.627 305.851L130.683 290.181L129.259 325.794L123.561 340.039L103.617 355.709L80.825 368.53L130.683 392.747Z" fill="#E4E4E4"/>
<path d="M123.561 340.039L70.8533 305.851M123.561 340.039L129.259 325.794L130.683 290.181L150.627 305.851L170.57 315.822M123.561 340.039L103.617 355.709L80.825 368.53L130.683 392.747M70.8533 305.851C65.3939 284.154 65.1721 271.987 70.8533 250.294C79.8632 234.242 87.1561 227.5 103.617 218.955C124.759 212.341 136.607 212.847 157.749 218.955C171.941 228.696 176.167 235.92 180.542 250.294M70.8533 305.851C56.2317 304.356 48.5187 304.93 36.6648 311.549M180.542 250.294L170.57 315.822M180.542 250.294C187.139 242.76 191.975 239.24 203.334 234.624C220.003 228.359 229.417 228.299 246.07 234.624C269.486 245.779 279.156 256.813 291.655 283.058C294.083 301.547 291.792 311.043 284.532 327.218C276.344 339.753 269.539 344.779 253.192 350.011M170.57 315.822L219.004 312.973L201.91 350.011M253.192 350.011L201.91 350.011M253.192 350.011C275.558 355.777 285.265 361.303 298.777 374.228C304.668 393.715 304.603 404.605 298.777 424.086C291.77 443.083 284.414 451.127 267.438 462.548C249.635 467.846 239.657 467.552 221.853 462.548C208.608 458.503 198.902 445.408 190.513 434.058M201.91 350.011L231.825 398.445L176.268 392.747M190.513 434.058L176.268 392.747M190.513 434.058C190.826 437.028 191.172 440.056 191.521 443.11C193.189 457.697 194.926 472.892 193.362 485.341C185.091 495.851 178.871 500.741 163.447 506.709C147.871 511.556 139.136 511.725 123.561 506.709C106.058 499.641 97.351 493.622 85.0986 476.794C78.6109 457.881 78.0347 447.272 85.0986 428.36M176.268 392.747L146.353 436.907L130.683 392.747M85.0986 428.36L130.683 392.747M85.0986 428.36C68.9652 433.079 59.9218 432.913 43.7873 428.36C29.4221 418.718 22.2089 412.506 12.4478 398.445C4.8444 377.702 2.91122 365.78 12.4478 342.888C19.0918 327.087 22.05 324.471 36.0364 312.104M36.6648 311.549L36.0364 312.104M36.6648 311.549C36.4529 311.736 36.2435 311.921 36.0364 312.104M253.192 522.379C225.81 525.8 214.465 533.38 185 549.5C133.375 626.517 100.432 667.675 30.9666 710.416C34.8834 733.079 48.8518 742.107 80.825 756.001H157.749C177.748 751.688 187.644 748.531 203.334 741.755C240.657 697.84 264.009 675.656 308.749 639.19C341.595 625.051 355.716 623.921 388.522 620.671C403.851 612.002 412.747 603.302 417.013 587.907C423.378 561.784 421.786 525.922 417.013 454.001C482.238 399.52 514.996 355.674 581 268C611.435 215.769 668.14 109.51 693.371 49.4365C694.506 33.1638 690.853 23.3062 681.974 9.54939C674.598 5.2507 674.005 4.40194 664.5 9.54903C652.386 43.77 610.289 142.725 591 177.5C514.582 296.094 470.603 364.96 388.522 436.907C393.715 509.355 395.73 537.056 388.522 572C377.54 587.317 367.049 593.179 340.5 602L298.777 605C246.207 643.378 221.405 669.447 182 717C159.747 722.343 140.753 720.156 118.5 714C113.207 703.854 112.359 694.764 118.5 682.5C173.285 634.772 205.991 596.682 253.192 522.379ZM335 386L347.5 283.058C366.09 242.043 391.348 202.22 403.5 158.5L432.5 86.0003C443.027 80.3675 448.469 76.7678 456.9 82.2006C470.411 97.0106 462.429 98.333 461.5 113.5C431.515 194.061 368.5 309.5 335 386Z" stroke="#E4E4E4" stroke-width="12"/>
</svg>
