<svg width="426" height="752" viewBox="0 0 426 752" fill="none" xmlns="http://www.w3.org/2000/svg">
<path d="M114.598 50.2116V339.807C124.457 350.601 132.05 353.774 148.198 355.807C161.229 352.548 167.001 348.819 175.397 339.807V101.411C177.809 88.4409 180.075 81.3954 192.997 71.0113C206.119 64.4256 213.474 65.9513 226.596 71.0113C238.453 79.3474 242.549 86.4389 247.396 101.411V287.008C255.532 301.322 262.729 304.261 277.795 309.407C292.029 302.845 298.251 299.089 306.595 287.008V50.2116C298.199 28.8417 289.653 18.6158 263.396 5.41232C223.708 -0.216864 201.018 -0.719318 159.397 5.41232C134.012 17.0255 124.807 27.2832 114.598 50.2116Z" fill="#E4E4E4"/>
<path fill-rule="evenodd" clip-rule="evenodd" d="M92.1985 378.206L1 659.802V709.401C12.8284 730.721 21.4485 739.488 39.3994 751H376.994C400.625 738.632 411.726 730 424.993 709.401V659.802L324.195 378.206H92.1985ZM282.595 423.005H127.398C92.156 500.345 77.5362 544.517 60.199 624.602V669.401H101.798C109.039 609.868 116.968 577.368 143.398 522.204H324.195C316.818 469.289 309.621 444.515 282.595 423.005Z" fill="#E4E4E4"/>
<path d="M114.598 50.2116V339.807C124.457 350.601 132.05 353.774 148.198 355.807C161.229 352.548 167.001 348.819 175.397 339.807V101.411C177.809 88.4409 180.075 81.3954 192.997 71.0113C206.119 64.4256 213.474 65.9513 226.596 71.0113C238.453 79.3474 242.549 86.4389 247.396 101.411V287.008C255.532 301.322 262.729 304.261 277.795 309.407C292.029 302.845 298.251 299.089 306.595 287.008V50.2116C298.199 28.8417 289.653 18.6158 263.396 5.41232C223.708 -0.216864 201.018 -0.719318 159.397 5.41232C134.012 17.0255 124.807 27.2832 114.598 50.2116Z" stroke="#E4E4E4" stroke-width="2"/>
<path fill-rule="evenodd" clip-rule="evenodd" d="M92.1985 378.206L1 659.802V709.401C12.8284 730.721 21.4485 739.488 39.3994 751H376.994C400.625 738.632 411.726 730 424.993 709.401V659.802L324.195 378.206H92.1985ZM282.595 423.005H127.398C92.156 500.345 77.5362 544.517 60.199 624.602V669.401H101.798C109.039 609.868 116.968 577.368 143.398 522.204H324.195C316.818 469.289 309.621 444.515 282.595 423.005Z" stroke="#E4E4E4" stroke-width="2"/>
</svg>
